<svg width="41" height="41" viewBox="0 0 41 41" fill="none" xmlns="http://www.w3.org/2000/svg">
<path d="M6.83236 28.1878C6.83236 29.5471 7.37231 30.8506 8.33344 31.8117C9.29456 32.7729 10.5981 33.3128 11.9574 33.3128C11.9574 34.4455 12.4073 35.5318 13.2083 36.3328C14.0092 37.1337 15.0955 37.5837 16.2282 37.5837C17.3609 37.5837 18.4472 37.1337 19.2481 36.3328C20.0491 35.5318 20.499 34.4455 20.499 33.3128C20.499 34.4455 20.949 35.5318 21.7499 36.3328C22.5509 37.1337 23.6372 37.5837 24.7699 37.5837C25.9026 37.5837 26.9889 37.1337 27.7898 36.3328C28.5907 35.5318 29.0407 34.4455 29.0407 33.3128C29.9495 33.3131 30.8421 33.0717 31.6269 32.6133C32.4117 32.1549 33.0605 31.4961 33.5067 30.7044C33.953 29.9127 34.1807 29.0165 34.1665 28.1078C34.1523 27.1991 33.8968 26.3105 33.426 25.5331C34.5953 25.3071 35.6494 24.6812 36.4075 23.7627C37.1655 22.8441 37.5801 21.6904 37.5801 20.4995C37.5801 19.3086 37.1655 18.1548 36.4075 17.2363C35.6494 16.3178 34.5953 15.6918 33.426 15.4659C33.8963 14.6885 34.1516 13.8001 34.1655 12.8916C34.1795 11.9831 33.9517 11.0873 33.5055 10.2958C33.0592 9.50436 32.4106 8.84576 31.6261 8.38749C30.8415 7.92922 29.9493 7.68775 29.0407 7.68783C29.0407 6.55513 28.5907 5.46883 27.7898 4.66789C26.9889 3.86695 25.9026 3.41699 24.7699 3.41699C23.6372 3.41699 22.5509 3.86695 21.7499 4.66789C20.949 5.46883 20.499 6.55513 20.499 7.68783C20.499 6.55513 20.0491 5.46883 19.2481 4.66789C18.4472 3.86695 17.3609 3.41699 16.2282 3.41699C15.0955 3.41699 14.0092 3.86695 13.2083 4.66789C12.4073 5.46883 11.9574 6.55513 11.9574 7.68783C11.0488 7.68775 10.1565 7.92922 9.37197 8.38749C8.58743 8.84576 7.93882 9.50436 7.49259 10.2958C7.04637 11.0873 6.81857 11.9831 6.83253 12.8916C6.8465 13.8001 7.10173 14.6885 7.57207 15.4659C6.40278 15.6918 5.34863 16.3178 4.5906 17.2363C3.83258 18.1548 3.41797 19.3086 3.41797 20.4995C3.41797 21.6904 3.83258 22.8441 4.5906 23.7627C5.34863 24.6812 6.40278 25.3071 7.57207 25.5331C7.08774 26.3339 6.83192 27.252 6.83236 28.1878Z" stroke="url(#paint0_linear_2359_4565)" stroke-width="1.5" stroke-linecap="round" stroke-linejoin="round"/>
<path d="M12.8125 24.7715L15.9593 15.3312C16.0382 15.0956 16.1893 14.8908 16.391 14.7457C16.5927 14.6006 16.8349 14.5225 17.0833 14.5225C17.3318 14.5225 17.574 14.6006 17.7757 14.7457C17.9774 14.8908 18.1284 15.0956 18.2074 15.3312L21.3542 24.7715M26.4792 14.5215V24.7715M14.5208 21.3548H19.6458" stroke="url(#paint1_linear_2359_4565)" stroke-width="1.5" stroke-linecap="round" stroke-linejoin="round"/>
<defs>
<linearGradient id="paint0_linear_2359_4565" x1="20.499" y1="3.41699" x2="20.499" y2="37.5837" gradientUnits="userSpaceOnUse">
<stop stop-color="#F05323"/>
<stop offset="1" stop-color="#666666"/>
</linearGradient>
<linearGradient id="paint1_linear_2359_4565" x1="19.6458" y1="14.5215" x2="19.6458" y2="24.7715" gradientUnits="userSpaceOnUse">
<stop stop-color="#F05323"/>
<stop offset="1" stop-color="#666666"/>
</linearGradient>
</defs>
</svg>
