<svg width="34" height="34" viewBox="0 0 34 34" fill="none" xmlns="http://www.w3.org/2000/svg">
<rect x="0.25" y="0.25" width="33.5" height="33.5" rx="16.75" stroke="white" stroke-width="0.5"/>
<path fill-rule="evenodd" clip-rule="evenodd" d="M13.3359 10C14.1823 9.99995 15.0086 10.2473 15.7049 10.7092C16.4012 11.1711 16.9345 11.8256 17.2337 12.5857C17.533 13.3457 17.584 14.1752 17.3801 14.9638C17.1762 15.7523 16.727 16.4626 16.0922 17C16.727 17.5374 17.1762 18.2477 17.3801 19.0362C17.584 19.8248 17.533 20.6543 17.2337 21.4143C16.9345 22.1744 16.4012 22.8289 15.7049 23.2908C15.0086 23.7527 14.1823 24.0001 13.3359 24H9.16927C8.61674 24 8.08683 23.7893 7.69613 23.4142C7.30543 23.0391 7.08594 22.5304 7.08594 22V12C7.08594 11.4696 7.30543 10.9609 7.69613 10.5858C8.08683 10.2107 8.61674 10 9.16927 10H13.3359ZM23.2318 14C25.9474 14 27.9193 16.368 27.9193 19C27.9192 19.2449 27.8256 19.4813 27.656 19.6644C27.4865 19.8474 27.2529 19.9643 26.9995 19.993L26.8776 20H20.7734C21.1464 21.224 22.1828 22 23.2318 22C24.3568 22 24.9943 21.489 25.5651 20.85C25.7447 20.6484 26.0003 20.5236 26.2757 20.503C26.5512 20.4824 26.8239 20.5676 27.0339 20.74C27.2438 20.9124 27.3738 21.1578 27.3953 21.4222C27.4168 21.6866 27.328 21.9484 27.1484 22.15L27.037 22.272L26.7984 22.518C26.0464 23.26 24.9464 24 23.2318 24C20.5161 24 18.5443 21.632 18.5443 19C18.5443 16.368 20.5161 14 23.2318 14ZM13.3359 18H9.16927V22H13.3359C13.8765 22.0023 14.3969 21.8028 14.7871 21.4436C15.1774 21.0844 15.4068 20.5937 15.4271 20.0751C15.4474 19.5564 15.2569 19.0506 14.8958 18.6643C14.5348 18.278 14.0315 18.0416 13.4922 18.005L13.3359 18ZM23.2318 16C22.1828 16 21.1464 16.776 20.7734 18H25.6901C25.3172 16.776 24.2807 16 23.2318 16ZM13.3359 12H9.16927V16H13.3359C13.8885 16 14.4184 15.7893 14.8091 15.4142C15.1998 15.0391 15.4193 14.5304 15.4193 14C15.4193 13.4696 15.1998 12.9609 14.8091 12.5858C14.4184 12.2107 13.8885 12 13.3359 12ZM24.7943 11C25.0705 11 25.3355 11.1054 25.5308 11.2929C25.7262 11.4804 25.8359 11.7348 25.8359 12C25.8359 12.2652 25.7262 12.5196 25.5308 12.7071C25.3355 12.8946 25.0705 13 24.7943 13H21.6693C21.393 13 21.1281 12.8946 20.9327 12.7071C20.7374 12.5196 20.6276 12.2652 20.6276 12C20.6276 11.7348 20.7374 11.4804 20.9327 11.2929C21.1281 11.1054 21.393 11 21.6693 11H24.7943Z" fill="white"/>
</svg>
