<svg width="34" height="34" viewBox="0 0 34 34" fill="none" xmlns="http://www.w3.org/2000/svg">
<rect x="0.25" y="0.25" width="33.5" height="33.5" rx="16.75" stroke="white" stroke-width="0.5"/>
<path d="M26.9193 17C26.921 18.3172 26.6508 19.6216 26.1243 20.8379C25.5979 22.0542 24.8256 23.1584 23.8521 24.0865C22.8865 25.0118 21.7404 25.7453 20.4793 26.2452C19.2183 26.7451 17.867 27.0016 16.5026 27C10.7495 27 6.08595 22.523 6.08595 17C6.0822 14.4359 7.10818 11.969 8.95053 10.1125C9.92253 9.12774 11.0937 8.34376 12.3922 7.80858C13.6908 7.27339 15.0894 6.99825 16.5026 7.00001C17.867 6.99839 19.2183 7.25487 20.4793 7.75478C21.7404 8.25469 22.8865 8.98824 23.8521 9.91351C24.8256 10.8417 25.5979 11.9458 26.1243 13.1621C26.6508 14.3784 26.921 15.6829 26.9193 17Z" stroke="white" stroke-width="2" stroke-linecap="round" stroke-linejoin="round"/>
<path d="M26.9203 16.9988C25.4005 16.9988 21.2078 16.4488 17.4552 18.0303C13.3786 19.7488 10.4271 22.4148 9.14062 24.0723" stroke="white" stroke-width="2" stroke-linecap="round" stroke-linejoin="round"/>
<path d="M12.5938 7.72656C14.224 9.17106 17.7813 12.8486 19.1042 16.4996C20.4271 20.1506 20.9167 24.6396 21.2188 25.9171" stroke="white" stroke-width="2" stroke-linecap="round" stroke-linejoin="round"/>
<path d="M6.16406 15.7494C8.13177 15.8634 13.3406 15.9659 16.674 14.5994C20.0073 13.2329 22.8755 10.7194 23.8594 9.92188M6.8651 20.8059C7.78312 22.9387 9.43849 24.7029 11.5526 25.8014" stroke="white" stroke-width="2" stroke-linecap="round" stroke-linejoin="round"/>
<path d="M6.08595 17C6.0822 14.4359 7.10818 11.969 8.95053 10.1125C9.92253 9.12774 11.0937 8.34376 12.3922 7.80858C13.6908 7.27339 15.0894 6.99825 16.5026 7.00001M20.6693 7.83201C21.8558 8.3299 22.9351 9.03579 23.8521 9.91351C24.8256 10.8417 25.5979 11.9458 26.1243 13.1621C26.6508 14.3784 26.921 15.6829 26.9193 17C26.9193 18.231 26.6875 19.4105 26.263 20.5M16.5026 27C17.867 27.0016 19.2183 26.7451 20.4793 26.2452C21.7404 25.7453 22.8865 25.0118 23.8521 24.0865" stroke="white" stroke-width="2" stroke-linecap="round" stroke-linejoin="round"/>
</svg>
