<svg width="27" height="27" viewBox="0 0 27 27" fill="none" xmlns="http://www.w3.org/2000/svg">
<g clip-path="url(#clip0_2360_5445)">
<path d="M23.25 6H16.5V24.75H24.75V7.5C24.75 7.10218 24.592 6.72064 24.3107 6.43934C24.0294 6.15804 23.6478 6 23.25 6ZM19.5 18.75H18V17.25H19.5V18.75ZM19.5 15H18V13.5H19.5V15ZM19.5 11.25H18V9.75H19.5V11.25ZM22.5 18.75H21V17.25H22.5V18.75ZM22.5 15H21V13.5H22.5V15ZM22.5 11.25H21V9.75H22.5V11.25Z" fill="url(#paint0_linear_2360_5445)"/>
<path d="M13.41 2.25H4.59C4.16831 2.25 3.76388 2.41752 3.4657 2.7157C3.16752 3.01388 3 3.41831 3 3.84V24.75H6.75V22.5H11.25V24.75H15V3.84C15 3.41831 14.8325 3.01388 14.5343 2.7157C14.2361 2.41752 13.8317 2.25 13.41 2.25ZM6.75 18.75H5.25V17.25H6.75V18.75ZM6.75 15H5.25V13.5H6.75V15ZM6.75 11.25H5.25V9.75H6.75V11.25ZM6.75 7.5H5.25V6H6.75V7.5ZM9.75 18.75H8.25V17.25H9.75V18.75ZM9.75 15H8.25V13.5H9.75V15ZM9.75 11.25H8.25V9.75H9.75V11.25ZM9.75 7.5H8.25V6H9.75V7.5ZM12.75 18.75H11.25V17.25H12.75V18.75ZM12.75 15H11.25V13.5H12.75V15ZM12.75 11.25H11.25V9.75H12.75V11.25ZM12.75 7.5H11.25V6H12.75V7.5Z" fill="url(#paint1_linear_2360_5445)"/>
</g>
<defs>
<linearGradient id="paint0_linear_2360_5445" x1="20.625" y1="6" x2="20.625" y2="24.75" gradientUnits="userSpaceOnUse">
<stop stop-color="#F05323"/>
<stop offset="1" stop-color="#D4D4D4"/>
</linearGradient>
<linearGradient id="paint1_linear_2360_5445" x1="9" y1="2.25" x2="9" y2="24.75" gradientUnits="userSpaceOnUse">
<stop stop-color="#F05323"/>
<stop offset="1" stop-color="#D4D4D4"/>
</linearGradient>
<clipPath id="clip0_2360_5445">
<rect width="27" height="27" fill="white"/>
</clipPath>
</defs>
</svg>
