<svg width="150" height="100" viewBox="0 0 150 100" fill="none" xmlns="http://www.w3.org/2000/svg">
<path d="M120.938 37.75C118.838 27.1107 113.11 17.5304 104.732 10.6453C96.3533 3.76021 85.8444 -0.00245152 75 1.19835e-06C56.9375 1.19835e-06 41.25 10.25 33.4375 25.25C24.2515 26.2427 15.7563 30.5951 9.5843 37.4708C3.41232 44.3465 -0.00107314 53.2605 2.5308e-07 62.5C2.5308e-07 83.1875 16.8125 100 37.5 100H118.75C136 100 150 86 150 68.75C150 52.25 137.188 38.875 120.938 37.75ZM118.75 87.5H37.5C23.6875 87.5 12.5 76.3125 12.5 62.5C12.5 49.6875 22.0625 39 34.75 37.6875L41.4375 37L44.5625 31.0625C47.4373 25.4678 51.7999 20.7747 57.1701 17.4996C62.5403 14.2246 68.7099 12.4946 75 12.5C91.375 12.5 105.5 24.125 108.688 40.1875L110.562 49.5625L120.125 50.25C124.823 50.566 129.228 52.6499 132.451 56.0824C135.675 59.5149 137.479 64.0411 137.5 68.75C137.5 79.0625 129.062 87.5 118.75 87.5Z" fill="url(#paint0_linear_1397_4806)"/>
<defs>
<linearGradient id="paint0_linear_1397_4806" x1="75" y1="0" x2="75" y2="100" gradientUnits="userSpaceOnUse">
<stop stop-color="#F05323"/>
<stop offset="1" stop-color="#666666"/>
</linearGradient>
</defs>
</svg>
