<svg width="41" height="41" viewBox="0 0 41 41" fill="none" xmlns="http://www.w3.org/2000/svg">
<path d="M26.9063 11.5311C26.9066 10.4669 27.2382 9.4291 27.8552 8.56188C28.4721 7.69467 29.3437 7.04102 30.349 6.69168C31.3543 6.34234 32.4434 6.31463 33.4652 6.6124C34.4869 6.91016 35.3906 7.51864 36.0509 8.35336C36.7111 9.18808 37.0951 10.2076 37.1495 11.2705C37.204 12.3334 36.9262 13.3868 36.3547 14.2847C35.7833 15.1825 34.9464 15.8801 33.9605 16.2807C32.9745 16.6814 31.8882 16.7651 30.8525 16.5203L27.8134 20.5716C28.3485 21.0642 28.7727 21.6651 29.0577 22.3344C29.3427 23.0036 29.482 23.7258 29.4663 24.453C29.4506 25.1802 29.2802 25.8957 28.9666 26.552C28.653 27.2083 28.2033 27.7904 27.6474 28.2594C27.0914 28.7285 26.442 29.0738 25.7423 29.2725C25.0426 29.4711 24.3086 29.5186 23.5891 29.4117C22.8696 29.3048 22.1812 29.0459 21.5695 28.6523C20.9577 28.2588 20.4368 27.7395 20.0413 27.1291L14.0822 29.115C14.0899 29.2312 14.0938 29.349 14.0938 29.4686C14.0936 30.7008 13.6495 31.8916 12.8429 32.823C12.0363 33.7544 10.9211 34.364 9.70169 34.5402C8.48223 34.7164 7.2401 34.4474 6.20282 33.7824C5.16554 33.1175 4.40255 32.1011 4.05359 30.9194C3.70463 29.7377 3.79307 28.4699 4.30271 27.3481C4.81234 26.2263 5.70906 25.3257 6.82861 24.8112C7.94816 24.2966 9.21561 24.2027 10.3988 24.5465C11.582 24.8903 12.6017 25.6488 13.2712 26.6832L19.2303 24.6973C19.1746 23.896 19.3081 23.0928 19.6199 22.3526C19.9317 21.6124 20.4132 20.9558 21.0254 20.4358C21.6376 19.9159 22.3635 19.5471 23.1444 19.3593C23.9254 19.1714 24.7395 19.1698 25.5212 19.3544L28.5616 15.3031C28.0398 14.8231 27.6232 14.24 27.3383 13.5908C27.0534 12.9415 26.9062 12.2402 26.9063 11.5311Z" fill="url(#paint0_linear_2359_4575)"/>
<defs>
<linearGradient id="paint0_linear_2359_4575" x1="20.5" y1="6.40771" x2="20.5" y2="34.5929" gradientUnits="userSpaceOnUse">
<stop stop-color="#F05323"/>
<stop offset="1" stop-color="#666666"/>
</linearGradient>
</defs>
</svg>
