<svg width="36" height="9" viewBox="0 0 36 9" fill="none" xmlns="http://www.w3.org/2000/svg">
<path d="M-0.0017755 8.72705V-0.000222206H5.26527V0.937278H1.05504V3.88614H4.99254V4.82364H1.05504V7.78955H5.33345V8.72705H-0.0017755ZM7.03374 8.72705V2.1816H8.00533V3.20432H8.09055C8.22692 2.85489 8.44709 2.58358 8.75107 2.3904C9.05504 2.19438 9.4201 2.09637 9.84624 2.09637C10.2781 2.09637 10.6374 2.19438 10.9244 2.3904C11.2141 2.58358 11.44 2.85489 11.6019 3.20432H11.6701C11.8377 2.86626 12.0891 2.59779 12.4244 2.39893C12.7596 2.19722 13.1616 2.09637 13.6303 2.09637C14.2156 2.09637 14.6942 2.27961 15.0664 2.64608C15.4386 3.00972 15.6246 3.57648 15.6246 4.34637V8.72705H14.619V4.34637C14.619 3.86341 14.4869 3.51824 14.2227 3.31086C13.9585 3.10347 13.6474 2.99978 13.2894 2.99978C12.8292 2.99978 12.4727 3.13898 12.2198 3.41739C11.967 3.69296 11.8406 4.04239 11.8406 4.46569V8.72705H10.8178V4.2441C10.8178 3.87194 10.6971 3.57222 10.4556 3.34495C10.2141 3.11483 9.90305 2.99978 9.52237 2.99978C9.26101 2.99978 9.01669 3.06938 8.78942 3.20858C8.56499 3.34779 8.38317 3.54097 8.24396 3.78813C8.1076 4.03245 8.03942 4.31512 8.03942 4.63614V8.72705H7.03374ZM17.5998 8.72705V-0.000222206H18.6055V3.22137H18.6907C18.7646 3.10773 18.8668 2.96285 18.9975 2.78671C19.131 2.60773 19.3214 2.44864 19.5685 2.30944C19.8185 2.16739 20.1566 2.09637 20.5827 2.09637C21.1339 2.09637 21.6197 2.23415 22.0401 2.50972C22.4606 2.78529 22.7887 3.17591 23.0245 3.6816C23.2603 4.18728 23.3782 4.78387 23.3782 5.47137C23.3782 6.16455 23.2603 6.7654 23.0245 7.27393C22.7887 7.77961 22.462 8.17165 22.0444 8.45006C21.6268 8.72563 21.1452 8.86341 20.5998 8.86341C20.1793 8.86341 19.8427 8.79381 19.5898 8.65461C19.337 8.51256 19.1424 8.35205 19.006 8.17307C18.8697 7.99126 18.7646 7.84069 18.6907 7.72137H18.5714V8.72705H17.5998ZM18.5884 5.45432C18.5884 5.94864 18.6609 6.38472 18.8058 6.76256C18.9506 7.13756 19.1623 7.4316 19.4407 7.64466C19.7191 7.85489 20.06 7.96001 20.4634 7.96001C20.8839 7.96001 21.2347 7.84921 21.516 7.62762C21.8001 7.40319 22.0131 7.10205 22.1552 6.72421C22.3001 6.34353 22.3725 5.92023 22.3725 5.45432C22.3725 4.9941 22.3015 4.57932 22.1594 4.21001C22.0202 3.83785 21.8086 3.54381 21.5245 3.3279C21.2433 3.10915 20.8896 2.99978 20.4634 2.99978C20.0543 2.99978 19.7106 3.10347 19.4322 3.31086C19.1538 3.5154 18.9435 3.80233 18.8015 4.17165C18.6594 4.53813 18.5884 4.96569 18.5884 5.45432ZM27.6609 8.86341C27.0302 8.86341 26.4862 8.72421 26.0288 8.4458C25.5742 8.16455 25.2234 7.77251 24.9762 7.26966C24.7319 6.76398 24.6097 6.17591 24.6097 5.50546C24.6097 4.83501 24.7319 4.2441 24.9762 3.73273C25.2234 3.21853 25.5671 2.81796 26.0075 2.53103C26.4506 2.24126 26.9677 2.09637 27.5586 2.09637C27.8995 2.09637 28.2362 2.15319 28.5685 2.26682C28.9009 2.38046 29.2035 2.56512 29.4762 2.8208C29.7489 3.07364 29.9663 3.40887 30.1282 3.82648C30.2901 4.2441 30.3711 4.7583 30.3711 5.3691V5.79523H25.3256V4.92591H29.3484C29.3484 4.5566 29.2745 4.22705 29.1268 3.93728C28.9819 3.64751 28.7745 3.41881 28.5046 3.2512C28.2376 3.08358 27.9222 2.99978 27.5586 2.99978C27.158 2.99978 26.8114 3.09921 26.5188 3.29807C26.229 3.4941 26.006 3.74978 25.8498 4.06512C25.6935 4.38046 25.6154 4.71853 25.6154 5.07932V5.65887C25.6154 6.15319 25.7006 6.57222 25.8711 6.91597C26.0444 7.25688 26.2844 7.51682 26.5913 7.6958C26.8981 7.87194 27.2546 7.96001 27.6609 7.96001C27.9251 7.96001 28.1637 7.92307 28.3768 7.84921C28.5927 7.77251 28.7788 7.65887 28.935 7.5083C29.0913 7.35489 29.212 7.16455 29.2972 6.93728L30.2688 7.21001C30.1665 7.53955 29.9947 7.82932 29.7532 8.07932C29.5117 8.32648 29.2134 8.51966 28.8583 8.65887C28.5032 8.79523 28.104 8.86341 27.6609 8.86341ZM31.9009 8.72705V2.1816H32.8725V3.17023H32.9407C33.06 2.84637 33.2759 2.58358 33.5884 2.38188C33.9009 2.18018 34.2532 2.07932 34.6452 2.07932C34.7191 2.07932 34.8114 2.08074 34.9222 2.08358C35.033 2.08643 35.1168 2.09069 35.1737 2.09637V3.1191C35.1396 3.11057 35.0614 3.09779 34.9393 3.08074C34.82 3.06086 34.6935 3.05091 34.56 3.05091C34.2418 3.05091 33.9577 3.11768 33.7077 3.2512C33.4606 3.38188 33.2646 3.5637 33.1197 3.79665C32.9776 4.02677 32.9066 4.28955 32.9066 4.58501V8.72705H31.9009Z" fill="#CECECE"/>
</svg>
