<svg width="29" height="29" viewBox="0 0 29 29" fill="none" xmlns="http://www.w3.org/2000/svg">
<g clip-path="url(#clip0_883_2642)">
<mask id="mask0_883_2642" style="mask-type:luminance" maskUnits="userSpaceOnUse" x="0" y="0" width="29" height="29">
<path d="M14.5 29C22.5081 29 29 22.5081 29 14.5C29 6.49187 22.5081 0 14.5 0C6.49187 0 0 6.49187 0 14.5C0 22.5081 6.49187 29 14.5 29Z" fill="white"/>
</mask>
<g mask="url(#mask0_883_2642)">
<path d="M0 0L0.453125 1.24609L0 2.54883V3.85156L1.8125 6.91016L0 9.96875V11.7812L1.8125 14.5L0 17.2188V19.0312L1.8125 22.0898L0 25.1484V29L1.24609 28.5469L2.54883 29H3.85156L6.91016 27.1875L9.96875 29H11.7812L14.5 27.1875L17.2188 29H19.0312L22.0898 27.1875L25.1484 29H29L28.5469 27.7539L29 26.4512V25.1484L27.1875 22.0898L29 19.0312V17.2188L27.1875 14.5L29 11.7812V9.96875L27.1875 6.91016L29 3.85156V0L27.7539 0.453125L26.4512 0H25.1484L22.0898 1.8125L19.0312 0H17.2188L14.5 1.8125L11.7812 0H9.96875L6.91016 1.8125L3.85156 0H0Z" fill="#EEEEEE"/>
<path d="M19.0312 0V6.11719L25.1484 0H19.0312ZM29 3.85156L22.8828 9.96875H29V3.85156ZM0 9.96875H6.11719L0 3.85156V9.96875ZM3.85156 0L9.96875 6.11719V0H3.85156ZM9.96875 29V22.8828L3.85156 29H9.96875ZM0 25.1484L6.11719 19.0312H0V25.1484ZM29 19.0312H22.8828L29 25.1484V19.0312ZM25.1484 29L19.0312 22.8828V29H25.1484Z" fill="#0052B4"/>
<path d="M0 0V2.54883L7.41992 9.96875H9.96875L0 0ZM11.7812 0V11.7812H0V17.2188H11.7812V29H17.2188V17.2188H29V11.7812H17.2188V0H11.7812ZM26.4512 0L19.0312 7.41992V9.96875L29 0H26.4512ZM9.96875 19.0312L0 29H2.54883L9.96875 21.5801V19.0312ZM19.0312 19.0312L29 29V26.4512L21.5801 19.0312H19.0312Z" fill="#D80027"/>
</g>
</g>
<defs>
<clipPath id="clip0_883_2642">
<rect width="29" height="29" fill="white"/>
</clipPath>
</defs>
</svg>
