<svg width="34" height="34" viewBox="0 0 34 34" fill="none" xmlns="http://www.w3.org/2000/svg">
<rect x="0.25" y="0.25" width="33.5" height="33.5" rx="16.75" stroke="white" stroke-width="0.5"/>
<path fill-rule="evenodd" clip-rule="evenodd" d="M20.6667 8C22.048 8 23.3728 8.52678 24.3495 9.46447C25.3263 10.4021 25.875 11.6739 25.875 13V21C25.875 22.3261 25.3263 23.5979 24.3495 24.5355C23.3728 25.4732 22.048 26 20.6667 26H12.3333C10.952 26 9.62724 25.4732 8.65049 24.5355C7.67373 23.5979 7.125 22.3261 7.125 21V13C7.125 11.6739 7.67373 10.4021 8.65049 9.46447C9.62724 8.52678 10.952 8 12.3333 8H20.6667ZM20.6667 10H12.3333C11.5045 10 10.7097 10.3161 10.1236 10.8787C9.53757 11.4413 9.20833 12.2044 9.20833 13V21C9.20833 21.7956 9.53757 22.5587 10.1236 23.1213C10.7097 23.6839 11.5045 24 12.3333 24H20.6667C21.4955 24 22.2903 23.6839 22.8764 23.1213C23.4624 22.5587 23.7917 21.7956 23.7917 21V13C23.7917 12.2044 23.4624 11.4413 22.8764 10.8787C22.2903 10.3161 21.4955 10 20.6667 10ZM16.5 13C17.6051 13 18.6649 13.4214 19.4463 14.1716C20.2277 14.9217 20.6667 15.9391 20.6667 17C20.6667 18.0609 20.2277 19.0783 19.4463 19.8284C18.6649 20.5786 17.6051 21 16.5 21C15.3949 21 14.3351 20.5786 13.5537 19.8284C12.7723 19.0783 12.3333 18.0609 12.3333 17C12.3333 15.9391 12.7723 14.9217 13.5537 14.1716C14.3351 13.4214 15.3949 13 16.5 13ZM16.5 15C15.9475 15 15.4176 15.2107 15.0269 15.5858C14.6362 15.9609 14.4167 16.4696 14.4167 17C14.4167 17.5304 14.6362 18.0391 15.0269 18.4142C15.4176 18.7893 15.9475 19 16.5 19C17.0525 19 17.5824 18.7893 17.9731 18.4142C18.3638 18.0391 18.5833 17.5304 18.5833 17C18.5833 16.4696 18.3638 15.9609 17.9731 15.5858C17.5824 15.2107 17.0525 15 16.5 15ZM21.1875 11.5C21.4638 11.5 21.7287 11.6054 21.9241 11.7929C22.1194 11.9804 22.2292 12.2348 22.2292 12.5C22.2292 12.7652 22.1194 13.0196 21.9241 13.2071C21.7287 13.3946 21.4638 13.5 21.1875 13.5C20.9112 13.5 20.6463 13.3946 20.4509 13.2071C20.2556 13.0196 20.1458 12.7652 20.1458 12.5C20.1458 12.2348 20.2556 11.9804 20.4509 11.7929C20.6463 11.6054 20.9112 11.5 21.1875 11.5Z" fill="white"/>
</svg>
