<svg width="34" height="34" viewBox="0 0 34 34" fill="none" xmlns="http://www.w3.org/2000/svg">
<rect x="0.25" y="0.25" width="33.5" height="33.5" rx="16.75" stroke="white" stroke-width="0.5"/>
<path d="M24.5833 8.125C25.158 8.125 25.7091 8.34449 26.1154 8.73519C26.5217 9.12589 26.75 9.6558 26.75 10.2083V24.7917C26.75 25.3442 26.5217 25.8741 26.1154 26.2648C25.7091 26.6555 25.158 26.875 24.5833 26.875H9.41667C8.84203 26.875 8.29093 26.6555 7.8846 26.2648C7.47827 25.8741 7.25 25.3442 7.25 24.7917V10.2083C7.25 9.6558 7.47827 9.12589 7.8846 8.73519C8.29093 8.34449 8.84203 8.125 9.41667 8.125H24.5833ZM24.0417 24.2708V18.75C24.0417 17.8494 23.6696 16.9856 23.0073 16.3488C22.3449 15.7119 21.4467 15.3542 20.51 15.3542C19.5892 15.3542 18.5167 15.8958 17.9967 16.7083V15.5521H14.9742V24.2708H17.9967V19.1354C17.9967 18.3333 18.6683 17.6771 19.5025 17.6771C19.9047 17.6771 20.2905 17.8307 20.5749 18.1042C20.8594 18.3777 21.0192 18.7486 21.0192 19.1354V24.2708H24.0417ZM11.4533 13.9167C11.936 13.9167 12.399 13.7323 12.7403 13.4041C13.0816 13.0759 13.2733 12.6308 13.2733 12.1667C13.2733 11.1979 12.4608 10.4062 11.4533 10.4062C10.9678 10.4062 10.5021 10.5917 10.1587 10.9219C9.81539 11.252 9.6225 11.6998 9.6225 12.1667C9.6225 13.1354 10.4458 13.9167 11.4533 13.9167ZM12.9592 24.2708V15.5521H9.95833V24.2708H12.9592Z" fill="white"/>
</svg>
