<svg width="28" height="28" viewBox="0 0 28 28" fill="none" xmlns="http://www.w3.org/2000/svg">
<path d="M21.9835 22.75C23.1249 22.7217 24.21 22.2483 25.0072 21.4309C25.8043 20.6134 26.2504 19.5168 26.25 18.375V14C26.25 13.5359 26.0656 13.0908 25.7374 12.7626C25.4092 12.4344 24.9641 12.25 24.5 12.25H19.25C18.7859 12.25 18.3408 12.4344 18.0126 12.7626C17.6844 13.0908 17.5 13.5359 17.5 14V18.375C17.4998 18.9588 17.6165 19.5367 17.8431 20.0747C18.0697 20.6127 18.4017 21.0999 18.8195 21.5076C19.2373 21.9153 19.7325 22.2353 20.2759 22.4486C20.8193 22.662 21.3999 22.7645 21.9835 22.75Z" fill="url(#paint0_linear_525_2335)"/>
<path d="M21.9835 22.75C23.1249 22.7217 24.21 22.2483 25.0072 21.4309C25.8043 20.6134 26.2504 19.5168 26.25 18.375V14C26.25 13.5359 26.0656 13.0908 25.7374 12.7626C25.4092 12.4344 24.9641 12.25 24.5 12.25H19.25C18.7859 12.25 18.3408 12.4344 18.0126 12.7626C17.6844 13.0908 17.5 13.5359 17.5 14V18.375C17.4998 18.9588 17.6165 19.5367 17.8431 20.0747C18.0697 20.6127 18.4017 21.0999 18.8195 21.5076C19.2373 21.9153 19.7325 22.2353 20.2759 22.4486C20.8193 22.662 21.3999 22.7645 21.9835 22.75Z" fill="url(#paint1_radial_525_2335)" fill-opacity="0.5"/>
<path d="M6.2335 22.75C7.37491 22.7217 8.46004 22.2483 9.25719 21.4309C10.0543 20.6134 10.5004 19.5168 10.5 18.375V14C10.5 13.5359 10.3156 13.0908 9.98744 12.7626C9.65925 12.4344 9.21413 12.25 8.75 12.25H3.5C3.03587 12.25 2.59075 12.4344 2.26256 12.7626C1.93437 13.0908 1.75 13.5359 1.75 14V18.375C1.74982 18.9588 1.86648 19.5367 2.09309 20.0747C2.31971 20.6127 2.65171 21.0999 3.06953 21.5076C3.48735 21.9153 3.98253 22.2353 4.52592 22.4486C5.06931 22.662 5.6499 22.7645 6.2335 22.75Z" fill="url(#paint2_linear_525_2335)"/>
<path d="M6.2335 22.75C7.37491 22.7217 8.46004 22.2483 9.25719 21.4309C10.0543 20.6134 10.5004 19.5168 10.5 18.375V14C10.5 13.5359 10.3156 13.0908 9.98744 12.7626C9.65925 12.4344 9.21413 12.25 8.75 12.25H3.5C3.03587 12.25 2.59075 12.4344 2.26256 12.7626C1.93437 13.0908 1.75 13.5359 1.75 14V18.375C1.74982 18.9588 1.86648 19.5367 2.09309 20.0747C2.31971 20.6127 2.65171 21.0999 3.06953 21.5076C3.48735 21.9153 3.98253 22.2353 4.52592 22.4486C5.06931 22.662 5.6499 22.7645 6.2335 22.75Z" fill="url(#paint3_radial_525_2335)" fill-opacity="0.5"/>
<path d="M8.75 13.9878C8.75323 13.5257 8.93904 13.0838 9.26687 12.7582C9.59471 12.4327 10.038 12.25 10.5 12.25H17.5C17.9641 12.25 18.4092 12.4344 18.7374 12.7626C19.0656 13.0908 19.25 13.5359 19.25 14V19.25C19.2505 19.8008 19.1642 20.3483 18.9945 20.8722C18.607 22.06 17.8088 23.0707 16.7432 23.7228C15.6775 24.375 14.4143 24.6259 13.1803 24.4305C11.9464 24.2351 10.8225 23.6062 10.0105 22.6567C9.19849 21.7072 8.75158 20.4993 8.75 19.25V13.9878Z" fill="url(#paint4_linear_525_2335)"/>
<path d="M8.75 13.9878C8.75323 13.5257 8.93904 13.0838 9.26687 12.7582C9.59471 12.4327 10.038 12.25 10.5 12.25H17.5C17.9641 12.25 18.4092 12.4344 18.7374 12.7626C19.0656 13.0908 19.25 13.5359 19.25 14V19.25C19.2505 19.8008 19.1642 20.3483 18.9945 20.8722C18.607 22.06 17.8088 23.0707 16.7432 23.7228C15.6775 24.375 14.4143 24.6259 13.1803 24.4305C11.9464 24.2351 10.8225 23.6062 10.0105 22.6567C9.19849 21.7072 8.75158 20.4993 8.75 19.25V13.9878Z" fill="url(#paint5_linear_525_2335)"/>
<path d="M21.875 5.25C21.1788 5.25 20.5111 5.52656 20.0188 6.01884C19.5266 6.51113 19.25 7.17881 19.25 7.875C19.25 8.57119 19.5266 9.23887 20.0188 9.73116C20.5111 10.2234 21.1788 10.5 21.875 10.5C22.5712 10.5 23.2389 10.2234 23.7312 9.73116C24.2234 9.23887 24.5 8.57119 24.5 7.875C24.5 7.17881 24.2234 6.51113 23.7312 6.01884C23.2389 5.52656 22.5712 5.25 21.875 5.25Z" fill="url(#paint6_linear_525_2335)"/>
<path d="M6.125 5.25C5.42881 5.25 4.76113 5.52656 4.26884 6.01884C3.77656 6.51113 3.5 7.17881 3.5 7.875C3.5 8.57119 3.77656 9.23887 4.26884 9.73116C4.76113 10.2234 5.42881 10.5 6.125 10.5C6.82119 10.5 7.48887 10.2234 7.98116 9.73116C8.47344 9.23887 8.75 8.57119 8.75 7.875C8.75 7.17881 8.47344 6.51113 7.98116 6.01884C7.48887 5.52656 6.82119 5.25 6.125 5.25Z" fill="url(#paint7_linear_525_2335)"/>
<path d="M14.0004 3.50342C13.5412 3.50342 13.0866 3.59386 12.6624 3.76957C12.2381 3.94529 11.8527 4.20284 11.528 4.52752C11.2033 4.8522 10.9458 5.23765 10.7701 5.66186C10.5943 6.08608 10.5039 6.54075 10.5039 6.99992C10.5039 7.45908 10.5943 7.91376 10.7701 8.33797C10.9458 8.76219 11.2033 9.14764 11.528 9.47232C11.8527 9.797 12.2381 10.0545 12.6624 10.2303C13.0866 10.406 13.5412 10.4964 14.0004 10.4964C14.9277 10.4964 15.8171 10.128 16.4728 9.47232C17.1285 8.8166 17.4969 7.92725 17.4969 6.99992C17.4969 6.07259 17.1285 5.18324 16.4728 4.52752C15.8171 3.8718 14.9277 3.50342 14.0004 3.50342Z" fill="url(#paint8_linear_525_2335)"/>
<defs>
<linearGradient id="paint0_linear_525_2335" x1="19.5808" y1="13.6447" x2="25.2945" y2="21.2485" gradientUnits="userSpaceOnUse">
<stop offset="0.125" stop-color="#F05323"/>
<stop offset="1" stop-color="#8A3014"/>
</linearGradient>
<radialGradient id="paint1_radial_525_2335" cx="0" cy="0" r="1" gradientUnits="userSpaceOnUse" gradientTransform="translate(16.1245 17.255) scale(7.04139 14.3353)">
<stop offset="0.433" stop-color="#F05323"/>
<stop offset="1" stop-color="#8A3014"/>
</radialGradient>
<linearGradient id="paint2_linear_525_2335" x1="3.83075" y1="13.6447" x2="9.5445" y2="21.2485" gradientUnits="userSpaceOnUse">
<stop offset="0.125" stop-color="#F05323"/>
<stop offset="1" stop-color="#8A3014"/>
</linearGradient>
<radialGradient id="paint3_radial_525_2335" cx="0" cy="0" r="1" gradientUnits="userSpaceOnUse" gradientTransform="translate(13.335 17.255) rotate(180) scale(7.79247 15.8644)">
<stop offset="0.433" stop-color="#8A3014"/>
<stop offset="1" stop-color="#F05323"/>
</radialGradient>
<linearGradient id="paint4_linear_525_2335" x1="11.2473" y1="13.8775" x2="17.8588" y2="22.9268" gradientUnits="userSpaceOnUse">
<stop offset="0.125" stop-color="#BD96FF"/>
<stop offset="1" stop-color="#9C6CFE"/>
</linearGradient>
<linearGradient id="paint5_linear_525_2335" x1="14" y1="10.7905" x2="23.9698" y2="26.7575" gradientUnits="userSpaceOnUse">
<stop stop-color="#F05323"/>
<stop offset="1" stop-color="#8A3014"/>
</linearGradient>
<linearGradient id="paint6_linear_525_2335" x1="20.4978" y1="5.94825" x2="23.1735" y2="10.22" gradientUnits="userSpaceOnUse">
<stop offset="0.125" stop-color="#F05323"/>
<stop offset="1" stop-color="#8A3014"/>
</linearGradient>
<linearGradient id="paint7_linear_525_2335" x1="4.74775" y1="5.94825" x2="7.4235" y2="10.22" gradientUnits="userSpaceOnUse">
<stop offset="0.125" stop-color="#F05323"/>
<stop offset="1" stop-color="#8A3014"/>
</linearGradient>
<linearGradient id="paint8_linear_525_2335" x1="12.1664" y1="4.43267" x2="15.7312" y2="10.1237" gradientUnits="userSpaceOnUse">
<stop offset="0.125" stop-color="#F05323"/>
<stop offset="1" stop-color="#8A3014"/>
</linearGradient>
</defs>
</svg>
