<svg width="34" height="34" viewBox="0 0 34 34" fill="none" xmlns="http://www.w3.org/2000/svg">
<rect x="0.25" y="0.25" width="33.5" height="33.5" rx="16.75" stroke="white" stroke-width="0.5"/>
<path fill-rule="evenodd" clip-rule="evenodd" d="M16.9974 6.16797C11.0141 6.16797 6.16406 11.0181 6.16406 17.0013C6.16406 22.9846 11.0141 27.8346 16.9974 27.8346C22.9806 27.8346 27.8307 22.9846 27.8307 17.0013C27.8307 11.0181 22.9806 6.16797 16.9974 6.16797ZM8.33073 17.0013C8.33108 15.1976 8.8942 13.4389 9.94158 11.9704C10.989 10.502 12.4684 9.39687 14.1737 8.80921C15.879 8.22154 17.7252 8.18059 19.4549 8.69205C21.1846 9.20351 22.7116 10.2419 23.8231 11.6625C24.9346 13.0831 25.5751 14.815 25.6555 16.617C25.7358 18.4189 25.2519 20.201 24.2713 21.7149C23.2906 23.2287 21.8621 24.3989 20.1848 25.0622C18.5075 25.7256 16.665 25.8491 14.9141 25.4156L15.692 21.7604C16.4362 22.406 17.3603 22.652 18.2476 22.6357C19.2204 22.6173 20.1976 22.2891 21.0155 21.7745C21.8301 21.2621 22.5581 20.5178 22.9568 19.6002C23.3877 18.611 23.5656 17.5302 23.4745 16.4551C23.3833 15.38 23.0259 14.3445 22.4346 13.442C21.8433 12.5395 21.0366 11.7984 20.0874 11.2855C19.1381 10.7727 18.0761 10.5042 16.9971 10.5043C15.9182 10.5044 14.8562 10.773 13.907 11.2861C12.9578 11.7991 12.1513 12.5404 11.5601 13.443C10.969 14.3456 10.6118 15.3811 10.5208 16.4562C10.4299 17.5314 10.608 18.6122 11.0391 19.6013C11.093 19.736 11.1734 19.8584 11.2756 19.9614C11.3778 20.0644 11.4996 20.1458 11.6338 20.2009C11.768 20.2559 11.9119 20.2834 12.057 20.2817C12.2021 20.2801 12.3453 20.2493 12.4783 20.1913C12.6112 20.1332 12.7311 20.0491 12.8309 19.9438C12.9307 19.8385 13.0084 19.7142 13.0592 19.5784C13.1101 19.4425 13.1332 19.2978 13.1271 19.1529C13.121 19.008 13.0858 18.8657 13.0237 18.7346C12.7669 18.1443 12.6449 17.5042 12.6665 16.8608C12.6881 16.2174 12.8528 15.5869 13.1486 15.0151C13.4443 14.4433 13.8638 13.9446 14.3765 13.5553C14.8891 13.1659 15.4821 12.8957 16.1123 12.7642C16.7425 12.6327 17.394 12.6432 18.0196 12.7951C18.6452 12.9469 19.2291 13.2363 19.7289 13.6421C20.2286 14.0479 20.6317 14.5599 20.9088 15.141C21.1859 15.722 21.33 16.3575 21.3307 17.0013C21.3307 18.1876 20.8866 19.2947 19.8606 19.9404C19.332 20.2741 18.7351 20.4604 18.2075 20.4691C17.6907 20.4799 17.2953 20.3239 17.0212 20.0368C16.7526 19.7551 16.4568 19.2113 16.4568 18.193C16.4568 17.543 16.7049 17.0013 17.0017 15.6016C17.0339 15.4616 17.0378 15.3165 17.0133 15.1749C16.9888 15.0333 16.9364 14.8979 16.8591 14.7768C16.7818 14.6556 16.6812 14.5511 16.5631 14.4692C16.445 14.3873 16.3117 14.3297 16.1712 14.2998C16.0306 14.27 15.8855 14.2683 15.7443 14.2951C15.6031 14.3218 15.4686 14.3764 15.3487 14.4556C15.2288 14.5348 15.1258 14.6371 15.0458 14.7564C14.9658 14.8758 14.9104 15.0099 14.8827 15.151L12.8677 24.6226C11.4952 23.8786 10.349 22.7778 9.55042 21.4363C8.75182 20.0948 8.33042 18.5625 8.33073 17.0013Z" fill="white"/>
</svg>
