<svg width="28" height="28" viewBox="0 0 28 28" fill="none" xmlns="http://www.w3.org/2000/svg">
<path d="M21.0026 15.1644H15.1693V20.9977C15.1693 21.3071 15.0464 21.6039 14.8276 21.8227C14.6088 22.0415 14.312 22.1644 14.0026 22.1644C13.6932 22.1644 13.3964 22.0415 13.1776 21.8227C12.9589 21.6039 12.8359 21.3071 12.8359 20.9977V15.1644H7.0026C6.69318 15.1644 6.39644 15.0415 6.17765 14.8227C5.95885 14.6039 5.83594 14.3071 5.83594 13.9977C5.83594 13.6883 5.95885 13.3916 6.17765 13.1728C6.39644 12.954 6.69318 12.8311 7.0026 12.8311H12.8359V6.99772C12.8359 6.6883 12.9589 6.39156 13.1776 6.17276C13.3964 5.95397 13.6932 5.83105 14.0026 5.83105C14.312 5.83105 14.6088 5.95397 14.8276 6.17276C15.0464 6.39156 15.1693 6.6883 15.1693 6.99772V12.8311H21.0026C21.312 12.8311 21.6088 12.954 21.8276 13.1728C22.0464 13.3916 22.1693 13.6883 22.1693 13.9977C22.1693 14.3071 22.0464 14.6039 21.8276 14.8227C21.6088 15.0415 21.312 15.1644 21.0026 15.1644Z" fill="white"/>
</svg>
