<svg width="25" height="21" viewBox="0 0 25 21" fill="none" xmlns="http://www.w3.org/2000/svg">
<path d="M22.5 18H24.75V20.25H0V18H2.25V1.125C2.25 0.826631 2.36853 0.540483 2.5795 0.329505C2.79048 0.118526 3.07663 0 3.375 0H14.625C14.9234 0 15.2095 0.118526 15.4205 0.329505C15.6315 0.540483 15.75 0.826631 15.75 1.125V18H18V6.75H21.375C21.6734 6.75 21.9595 6.86853 22.1705 7.0795C22.3815 7.29048 22.5 7.57663 22.5 7.875V18ZM6.75 9V11.25H11.25V9H6.75ZM6.75 4.5V6.75H11.25V4.5H6.75Z" fill="url(#paint0_linear_2360_5440)"/>
<defs>
<linearGradient id="paint0_linear_2360_5440" x1="12.375" y1="0" x2="12.375" y2="20.25" gradientUnits="userSpaceOnUse">
<stop stop-color="#F05323"/>
<stop offset="1" stop-color="#D4D4D4"/>
</linearGradient>
</defs>
</svg>
