<svg width="26" height="26" viewBox="0 0 26 26" fill="none" xmlns="http://www.w3.org/2000/svg">
<g clip-path="url(#clip0_2360_5431)">
<path d="M12.1718 19.9748L3.84171 17.7918L7.16048 16.9404C7.37291 16.8864 7.55501 16.7516 7.66696 16.5654C7.77891 16.3793 7.81159 16.157 7.75785 15.9471C7.70065 15.7367 7.56183 15.5569 7.3714 15.4466C7.18096 15.3363 6.9542 15.3044 6.7401 15.3577L0.622508 16.9622C0.432622 17.0105 0.266217 17.1236 0.152813 17.2815C0.039408 17.4394 -0.0136661 17.6317 0.0030049 17.8245V22.7364C0.0036935 22.9226 0.0687405 23.1031 0.187406 23.248C0.306071 23.3928 0.471259 23.4934 0.655695 23.5332L12.1718 26V19.9748ZM26 17.759C25.9992 17.5777 25.9382 17.4015 25.8263 17.2576C25.7144 17.1137 25.5578 17.0099 25.3805 16.9622L19.3072 15.3904C19.0931 15.3371 18.8663 15.3691 18.6759 15.4793C18.4854 15.5896 18.3466 15.7694 18.2894 15.9798C18.2357 16.1897 18.2683 16.412 18.3803 16.5982C18.4922 16.7843 18.6743 16.9191 18.8868 16.9731L21.9622 17.7699L13.8312 19.953V25.9891L25.3473 23.5222C25.5317 23.4825 25.6969 23.3819 25.8156 23.237C25.9343 23.0922 25.9993 22.9117 26 22.7254V17.759ZM17.9354 10.1839C17.672 11.1682 17.2499 12.1043 16.6853 12.9563C17.092 13.1974 17.464 13.491 17.7916 13.8296C17.8903 13.929 18.0162 13.998 18.1538 14.0284C18.2915 14.0587 18.4351 14.049 18.5674 14.0005C18.6996 13.9521 18.8148 13.8668 18.8989 13.7551C18.9831 13.6434 19.0327 13.51 19.0417 13.3711C19.0985 12.7927 19.0291 12.2091 18.8383 11.6593C18.6475 11.1096 18.3396 10.6065 17.9354 10.1839ZM8.06761 10.1839C7.66337 10.6065 7.3555 11.1096 7.16468 11.6593C6.97387 12.2091 6.90454 12.7927 6.96135 13.3711C6.97033 13.51 7.0199 13.6434 7.10406 13.7551C7.18823 13.8668 7.30339 13.9521 7.43563 14.0005C7.56786 14.049 7.7115 14.0587 7.84917 14.0284C7.98685 13.998 8.11267 13.929 8.21142 13.8296C8.53899 13.491 8.91105 13.1974 9.31767 12.9563C8.75306 12.1043 8.33099 11.1682 8.06761 10.1839ZM13.0015 0C13.0015 0 9.12961 1.91016 9.12961 5.73048C9.12961 7.83711 9.77124 13.3711 13.0015 13.3711C16.2318 13.3711 16.8734 7.83711 16.8734 5.73048C16.8734 1.91016 13.0015 0 13.0015 0ZM13.0015 7.09488C12.6991 7.09704 12.4029 7.01054 12.1504 6.84634C11.8979 6.68215 11.7005 6.44766 11.5832 6.17262C11.466 5.89758 11.4342 5.59437 11.4918 5.30146C11.5495 5.00856 11.694 4.73914 11.907 4.52739C12.1201 4.31564 12.3921 4.17109 12.6885 4.11208C12.985 4.05306 13.2925 4.08225 13.5721 4.19593C13.8517 4.30961 14.0908 4.50266 14.259 4.7506C14.4272 4.99854 14.5171 5.2902 14.5171 5.58858C14.5185 5.78587 14.4804 5.9815 14.4049 6.16419C14.3294 6.34688 14.218 6.51302 14.0771 6.65304C13.9362 6.79306 13.7687 6.90418 13.5841 6.98001C13.3995 7.05585 13.2015 7.09488 13.0015 7.09488ZM13.0015 14.55C12.5907 14.55 12.1968 14.711 11.9064 14.9975C11.6159 15.2841 11.4527 15.6728 11.4527 16.0781C11.4527 16.9295 12.1497 18.9597 13.0015 18.9597C13.8533 18.9597 14.5503 16.9295 14.5503 16.0781C14.5503 15.6728 14.3871 15.2841 14.0966 14.9975C13.8062 14.711 13.4123 14.55 13.0015 14.55Z" fill="url(#paint0_linear_2360_5431)"/>
</g>
<defs>
<linearGradient id="paint0_linear_2360_5431" x1="13" y1="0" x2="13" y2="26" gradientUnits="userSpaceOnUse">
<stop stop-color="#F05323"/>
<stop offset="1" stop-color="#D4D4D4"/>
</linearGradient>
<clipPath id="clip0_2360_5431">
<rect width="26" height="26" fill="white"/>
</clipPath>
</defs>
</svg>
