<svg width="41" height="41" viewBox="0 0 41 41" fill="none" xmlns="http://www.w3.org/2000/svg">
<path d="M33.5058 20.5C34.0472 20.5 34.5809 20.6288 35.0628 20.8756C35.5448 21.1224 35.9611 21.4801 36.2776 21.9194C36.5941 22.3587 36.8017 22.8669 36.8832 23.4022C36.9647 23.9375 36.9179 24.4844 36.7465 24.998L34.0781 32.9982C33.9648 33.3382 33.7475 33.634 33.4569 33.8437C33.1662 34.0534 32.817 34.1664 32.4586 34.1667H11.9586C11.5055 34.1667 11.071 33.9867 10.7506 33.6663C10.4303 33.3459 10.2503 32.9114 10.2503 32.4583C10.2503 32.0053 10.4303 31.5707 10.7506 31.2504C11.071 30.93 11.5055 30.75 11.9586 30.75H17.5619L20.0049 23.4195C20.2883 22.5698 20.8317 21.8306 21.5583 21.3067C22.2849 20.7828 23.1578 20.5006 24.0536 20.5H33.5058ZM15.3753 20.5C16.1474 20.5011 16.878 20.5501 17.5671 20.6469C17.2309 21.1758 16.9607 21.7437 16.7624 22.3382L15.2933 26.7491C15.2366 26.9194 15.1276 27.0675 14.982 27.1724C14.8363 27.2772 14.6613 27.3336 14.4818 27.3333H11.9586C10.5994 27.3333 9.29581 27.8733 8.33468 28.8344C7.37356 29.7955 6.8336 31.0991 6.8336 32.4583H5.12527C4.87262 32.4582 4.62315 32.402 4.39484 32.2938C4.16652 32.1856 3.96504 32.0282 3.80491 31.8327C3.64478 31.6373 3.53 31.4088 3.46881 31.1637C3.40763 30.9186 3.40158 30.6629 3.4511 30.4152C3.91577 28.0884 4.87756 25.5942 6.79944 23.6707C8.76402 21.7044 11.5725 20.5 15.3753 20.5ZM15.3753 5.125C17.1876 5.125 18.9257 5.84494 20.2072 7.12644C21.4887 8.40794 22.2086 10.146 22.2086 11.9583C22.2086 13.7706 21.4887 15.5087 20.2072 16.7902C18.9257 18.0717 17.1876 18.7917 15.3753 18.7917C13.563 18.7917 11.8249 18.0717 10.5434 16.7902C9.26188 15.5087 8.54194 13.7706 8.54194 11.9583C8.54194 10.146 9.26188 8.40794 10.5434 7.12644C11.8249 5.84494 13.563 5.125 15.3753 5.125ZM32.4586 5.125C32.8149 5.12514 33.1623 5.23672 33.4521 5.4441C33.7419 5.65148 33.9596 5.94429 34.0747 6.28154L34.4044 7.23992C34.4887 7.48681 34.6285 7.7111 34.813 7.89559C34.9975 8.08008 35.2218 8.21986 35.4687 8.30421L36.4271 8.63392C36.7639 8.74935 37.0563 8.96718 37.2633 9.25694C37.4703 9.54669 37.5816 9.8939 37.5816 10.25C37.5816 10.6061 37.4703 10.9533 37.2633 11.2431C37.0563 11.5328 36.7639 11.7506 36.4271 11.8661L35.4687 12.1958C35.2218 12.2801 34.9975 12.4199 34.813 12.6044C34.6285 12.7889 34.4887 13.0132 34.4044 13.2601L34.0747 14.2185C33.9592 14.5553 33.7414 14.8477 33.4517 15.0547C33.1619 15.2617 32.8147 15.373 32.4586 15.373C32.1025 15.373 31.7553 15.2617 31.4655 15.0547C31.1758 14.8477 30.958 14.5553 30.8425 14.2185L30.5145 13.2601C30.43 13.013 30.29 12.7886 30.1052 12.6041C29.9204 12.4196 29.6957 12.2799 29.4485 12.1958L28.4901 11.8661C28.1533 11.7506 27.8609 11.5328 27.6539 11.2431C27.4469 10.9533 27.3356 10.6061 27.3356 10.25C27.3356 9.8939 27.4469 9.54669 27.6539 9.25694C27.8609 8.96718 28.1533 8.74935 28.4901 8.63392L29.4485 8.30421C29.6957 8.22008 29.9204 8.0804 30.1052 7.8959C30.29 7.7114 30.43 7.48699 30.5145 7.23992L30.8425 6.28154C31.1295 5.61188 31.6933 5.125 32.4586 5.125Z" fill="url(#paint0_linear_2359_4570)"/>
<defs>
<linearGradient id="paint0_linear_2359_4570" x1="20.4998" y1="5.125" x2="20.4998" y2="34.1667" gradientUnits="userSpaceOnUse">
<stop stop-color="#F05323"/>
<stop offset="1" stop-color="#666666"/>
</linearGradient>
</defs>
</svg>
